<svg xmlns="http://www.w3.org/2000/svg" viewBox="0 0 244.06 244.06"><defs><style>.cls-1{fill:#687f53;stroke-miterlimit:10;stroke-width:0.8px;}.cls-1,.cls-2,.cls-3,.cls-4,.cls-5,.cls-6{stroke:#687f53;}.cls-2,.cls-5{fill:#b8cb79;}.cls-2,.cls-3,.cls-4,.cls-5,.cls-6{stroke-linejoin:round;}.cls-2,.cls-3{stroke-width:2.72px;}.cls-3,.cls-4,.cls-6{fill:#fff;}.cls-4{stroke-width:1.75px;}.cls-5,.cls-6{stroke-width:2.39px;}</style></defs><title>main_logo</title><g id="Layer_2" data-name="Layer 2"><g id="Layer_1-2" data-name="Layer 1"><circle class="cls-1" cx="122.03" cy="122.03" r="121.63"/><polygon class="cls-2" points="53.34 141.03 92.42 125.63 130.47 137.61 92.42 154.72 53.34 141.03"/><polygon class="cls-2" points="92.42 198.36 130.47 179.34 130.47 137.61 92.42 154.72 92.42 198.36"/><polygon class="cls-3" points="53.34 141.03 53.34 185.09 92.42 198.36 92.42 154.72 53.34 141.03"/><path class="cls-4" d="M71.81,110"/><polygon class="cls-5" points="71.81 109.97 132.06 86.23 190.72 104.7 132.06 131.08 71.81 109.97"/><polygon class="cls-5" points="132.06 197.56 190.72 168.25 190.72 104.7 132.06 131.08 132.06 197.56"/><polygon class="cls-6" points="132.06 131.08 71.81 109.97 71.81 132.44 110.1 146.21 110.53 189.71 132.06 197.56 132.06 131.08"/><polygon class="cls-6" points="71.81 110.13 107.71 66.41 132.05 131.24 71.81 110.13"/><polygon class="cls-5" points="107.71 66.41 162.68 45.7 190.72 104.86 132.05 131.24 107.71 66.41"/></g></g></svg>