<svg xmlns="http://www.w3.org/2000/svg" viewBox="0 0 118.99 104"><defs><style>.cls-1{fill:#687f53;}.cls-2{fill:#f7e8b2;}</style></defs><title>mandalart_sub</title><g id="Layer_2" data-name="Layer 2"><g id="Layer_1-2" data-name="Layer 1"><path class="cls-1" d="M118.5,98.62l-28-48.42L62.6,1.79a3.58,3.58,0,0,0-6.21,0l-28,48.42L.49,98.62A3.58,3.58,0,0,0,3.59,104H115.4A3.58,3.58,0,0,0,118.5,98.62ZM31.76,94.49h-19L22.26,78l9.51-16.47L41.27,78l9.51,16.47Zm8.8-44.64,9.51-16.47,9.51-16.47,9.51,16.47,9.51,16.47h-38ZM85.92,94.49h-19L76.42,78l9.51-16.47L95.43,78l9.51,16.47Z"/><polygon class="cls-2" points="59.49 90.83 49.99 74.36 40.48 57.89 59.49 57.89 78.51 57.89 69 74.36 59.49 90.83"/></g></g></svg>