<svg xmlns="http://www.w3.org/2000/svg" viewBox="0 0 421.71 421.71"><defs><style>.cls-1{fill:none;stroke-miterlimit:10;}.cls-1,.cls-2,.cls-3{stroke:#687f53;stroke-width:5px;}.cls-2{fill:#b8cb79;}.cls-2,.cls-3{stroke-linejoin:round;}.cls-3{fill:#fff;}</style></defs><title>non_mandalart</title><g id="Layer_2" data-name="Layer 2"><g id="Layer_1-2" data-name="Layer 1"><circle class="cls-1" cx="210.85" cy="210.85" r="208.35"/><polygon class="cls-2" points="93.19 243.4 160.13 217.02 225.3 237.54 160.13 266.85 93.19 243.4"/><polygon class="cls-2" points="160.13 341.6 225.3 309.03 225.3 237.54 160.13 266.85 160.13 341.6"/><polygon class="cls-3" points="93.19 243.4 93.19 318.88 160.13 341.6 160.13 266.85 93.19 243.4"/><path class="cls-3" d="M124.83,190.2"/><polygon class="cls-2" points="124.83 190.2 228.03 149.53 328.52 181.16 228.03 226.36 124.83 190.2"/><polygon class="cls-2" points="228.03 340.24 328.52 290.03 328.52 181.16 228.03 226.36 228.03 340.24"/><polygon class="cls-3" points="228.03 226.36 124.83 190.2 124.83 228.69 190.42 252.28 191.16 326.8 228.03 340.24 228.03 226.36"/><polygon class="cls-3" points="124.82 190.47 186.32 115.57 228.03 226.63 124.82 190.47"/><polygon class="cls-2" points="186.32 115.57 280.49 80.11 328.52 181.44 228.03 226.63 186.32 115.57"/></g></g></svg>