<svg xmlns="http://www.w3.org/2000/svg" viewBox="0 0 419.62 419.62"><defs><style>.cls-1{fill:#e2e1e1;}.cls-1,.cls-2,.cls-3{stroke:#687f53;stroke-linejoin:round;stroke-width:5px;}.cls-2{fill:#b8cb79;}.cls-3{fill:#fff;}</style></defs><title>signup</title><g id="Layer_2" data-name="Layer 2"><g id="Layer_1-2" data-name="Layer 1"><circle class="cls-1" cx="209.81" cy="209.81" r="207.31"/><polygon class="cls-2" points="94.01 238.24 169.32 208.56 242.65 231.65 169.32 264.62 94.01 238.24"/><polygon class="cls-2" points="169.32 348.71 242.65 312.07 242.65 231.65 169.32 264.62 169.32 348.71"/><polygon class="cls-3" points="94.01 238.24 94.01 323.15 169.32 348.71 169.32 264.62 94.01 238.24"/><path class="cls-3" d="M122.93,195.51"/><polygon class="cls-2" points="122.93 195.51 225.62 155.04 325.61 186.51 225.62 231.48 122.93 195.51"/><polygon class="cls-2" points="225.62 346.15 325.61 296.19 325.61 186.51 225.62 231.48 225.62 346.15"/><polygon class="cls-3" points="225.62 231.48 122.93 195.51 122.93 226.28 195.04 252.13 195.04 335.77 225.62 346.15 225.62 231.48"/><polygon class="cls-3" points="111.09 180.73 172.28 106.2 213.78 216.7 111.09 180.73"/><polygon class="cls-2" points="172.28 106.2 265.98 70.91 313.76 171.73 213.78 216.7 172.28 106.2"/></g></g></svg>