<svg xmlns="http://www.w3.org/2000/svg" viewBox="0 0 538.24 403.46"><defs><style>.cls-1{fill:none;stroke:#687f53;stroke-linecap:round;fill-rule:evenodd;}.cls-1,.cls-2,.cls-3{stroke-linejoin:round;stroke-width:14px;}.cls-2{fill:#b8cb79;}.cls-2,.cls-3{stroke:#8c633a;}.cls-3{fill:#fff;}</style></defs><title>step_4</title><g id="Layer_2" data-name="Layer 2"><g id="Layer_1-2" data-name="Layer 1"><path class="cls-1" d="M7,334.63c109.12-33.37,297.43-66.73,524.24-6.6"/><polygon class="cls-2" points="64.46 250.21 164.16 210.91 261.23 241.47 164.16 285.13 64.46 250.21"/><polygon class="cls-2" points="164.16 396.46 261.23 347.95 261.23 241.47 164.16 285.13 164.16 396.46"/><polygon class="cls-3" points="64.46 250.21 64.46 362.62 164.16 396.46 164.16 285.13 64.46 250.21"/><path class="cls-3" d="M111.58,171"/><polygon class="cls-2" points="111.58 170.97 265.29 110.39 414.96 157.51 265.29 224.82 111.58 170.97"/><polygon class="cls-2" points="265.29 394.43 414.96 319.64 414.96 157.51 265.29 224.82 265.29 394.43"/><polygon class="cls-3" points="265.29 224.82 111.58 170.97 111.58 228.3 209.28 263.42 210.38 374.41 265.29 394.43 265.29 224.82"/><polygon class="cls-3" points="111.57 171.38 203.17 59.82 265.28 225.22 111.57 171.38"/><polygon class="cls-2" points="203.17 59.82 343.43 7 414.95 157.92 265.28 225.22 203.17 59.82"/></g></g></svg>