<svg xmlns="http://www.w3.org/2000/svg" viewBox="0 0 390.38 554"><defs><style>.cls-1{fill:none;stroke:#8c633a;stroke-linecap:round;stroke-linejoin:round;stroke-width:14px;}.cls-1,.cls-2{fill-rule:evenodd;}.cls-2{fill:#c69c6c;}</style></defs><title>step_3</title><g id="Layer_2" data-name="Layer 2"><g id="Layer_1-2" data-name="Layer 1"><polygon class="cls-1" points="7 107.73 7 421.21 44.83 437.43 75.3 413.35 75.3 107.73 44.83 123.45 7 107.73"/><polyline class="cls-1" points="75.3 107.73 41.4 94.46 7 107.73 44.83 123.45 44.83 404.51"/><polygon class="cls-1" points="201.58 217.3 201.58 530.78 239.41 547 269.88 522.92 269.88 217.3 239.41 233.02 201.58 217.3"/><polyline class="cls-1" points="269.88 217.3 235.97 204.03 201.58 217.3 239.41 233.02 239.41 514.08"/><polygon class="cls-1" points="315.08 82.18 315.08 395.66 352.91 411.88 383.38 387.8 383.38 82.18 352.91 97.9 315.08 82.18"/><polyline class="cls-1" points="383.38 82.18 349.48 68.91 315.08 82.18 352.91 97.9 352.91 378.96"/><polygon class="cls-1" points="133.28 20.27 133.28 333.75 171.11 349.97 201.58 325.89 201.58 20.27 171.11 35.99 133.28 20.27"/><polyline class="cls-1" points="201.58 20.27 167.67 7 133.28 20.27 171.11 35.99 171.11 317.05"/><polygon class="cls-2" points="17 108 41 98 68 108 43 120 17 108"/><polygon class="cls-2" points="142 19 166 9 193 19 168 31 142 19"/><polygon class="cls-2" points="326 81 350 71 377 81 352 93 326 81"/><polygon class="cls-2" points="213 216 237 206 264 216 239 228 213 216"/></g></g></svg>