<svg xmlns="http://www.w3.org/2000/svg" viewBox="0 0 675.56 184.84"><defs><style>.cls-1{fill:#e2e1e1;}.cls-1,.cls-2{stroke:#8c633a;stroke-linecap:round;stroke-linejoin:round;stroke-width:14px;fill-rule:evenodd;}.cls-2{fill:#c69c6c;}</style></defs><title>step_2</title><g id="Layer_2" data-name="Layer 2"><g id="Layer_1-2" data-name="Layer 1"><polygon class="cls-1" points="7 94.9 7 137.12 103.02 148.61 103.02 103.22 7 94.9"/><polygon class="cls-2" points="103.02 103.22 103.02 148.61 431.32 86.31 431.32 51.91 103.02 103.22"/><polygon class="cls-1" points="7 94.9 104.87 102.93 431.32 51.91 345.07 47.19 7 94.9"/><polygon class="cls-1" points="36.88 62.19 36.88 111.03 160.57 124.33 160.57 71.82 36.88 62.19"/><polygon class="cls-2" points="160.57 71.82 160.57 124.33 583.46 52.27 583.46 12.46 160.57 71.82"/><polygon class="cls-1" points="36.88 62.19 162.96 71.48 583.46 12.46 472.37 7 36.88 62.19"/><polygon class="cls-1" points="121.98 108.64 121.98 163.03 245.66 177.84 245.66 119.36 121.98 108.64"/><polygon class="cls-1" points="245.66 119.36 245.66 177.84 668.56 97.59 668.56 53.26 245.66 119.36"/><polygon class="cls-1" points="121.98 108.64 248.05 118.99 668.56 53.26 557.47 47.19 121.98 108.64"/></g></g></svg>