<svg xmlns="http://www.w3.org/2000/svg" viewBox="0 0 124.11 97.58"><defs><style>.cls-1{fill:#687f53;}</style></defs><title>store</title><g id="Layer_2" data-name="Layer 2"><g id="Layer_1-2" data-name="Layer 1"><rect class="cls-1" x="9.9" width="104.3" height="8.26" rx="2.96" ry="2.96"/><path class="cls-1" d="M119.5,53.7H4.61A4.6,4.6,0,0,1,.17,47.86L9,16.28a4.6,4.6,0,0,1,4.43-3.37h97.31a4.6,4.6,0,0,1,4.43,3.37l8.8,31.58A4.6,4.6,0,0,1,119.5,53.7Z"/><path class="cls-1" d="M62.45,47.38V86.74H21.38V47.38a4.53,4.53,0,0,0-4.53-4.53H14.43A4.53,4.53,0,0,0,9.9,47.38V93.06a4.53,4.53,0,0,0,4.53,4.53h55a4.53,4.53,0,0,0,4.53-4.53V47.38a4.53,4.53,0,0,0-4.53-4.53H67A4.53,4.53,0,0,0,62.45,47.38Z"/><rect class="cls-1" x="21.38" y="41.31" width="41.07" height="1.55" rx="0.77" ry="0.77"/><rect class="cls-1" x="102.84" y="45.44" width="11.36" height="52.15" rx="4.33" ry="4.33"/></g></g></svg>